<svg width="11" height="14" viewBox="0 0 11 14" fill="none" xmlns="http://www.w3.org/2000/svg">
<g clip-path="url(#clip0_50_2651)">
<path d="M10.1496 0.560842C10.1994 0.597237 10.2405 0.64806 10.269 0.708492C10.2975 0.768924 10.3125 0.836962 10.3125 0.906154V13.0937C10.3125 13.2014 10.2763 13.3047 10.2118 13.3809C10.1474 13.4571 10.0599 13.4999 9.96875 13.4999H7.90625C7.81508 13.4999 7.72765 13.4571 7.66318 13.3809C7.59872 13.3047 7.5625 13.2014 7.5625 13.0937V11.8749H6.875V13.0937C6.875 13.2014 6.83878 13.3047 6.77432 13.3809C6.70985 13.4571 6.62242 13.4999 6.53125 13.4999H0.34375C0.252582 13.4999 0.165148 13.4571 0.100682 13.3809C0.0362164 13.3047 0 13.2014 0 13.0937V8.6249C5.47571e-05 8.53968 0.0227893 8.45663 0.0649859 8.38751C0.107182 8.31839 0.166704 8.26671 0.235125 8.23978L4.125 6.7074V4.15615C4.125 4.08077 4.14275 4.00688 4.17626 3.94274C4.20977 3.87859 4.25772 3.82674 4.31475 3.79297L9.81475 0.542967C9.86721 0.511934 9.92552 0.497285 9.98412 0.500414C10.0427 0.503543 10.0997 0.524345 10.1496 0.560842ZM4.125 7.56378L0.6875 8.9174V12.6874H4.125V7.56378ZM4.8125 12.6874H6.1875V11.4687C6.1875 11.3609 6.22372 11.2576 6.28818 11.1814C6.35265 11.1052 6.44008 11.0624 6.53125 11.0624H7.90625C7.99742 11.0624 8.08485 11.1052 8.14932 11.1814C8.21378 11.2576 8.25 11.3609 8.25 11.4687V12.6874H9.625V1.56347L4.8125 4.40722V12.6874Z" fill="white"/>
<path d="M1.375 9.4375H2.0625V10.25H1.375V9.4375ZM2.75 9.4375H3.4375V10.25H2.75V9.4375ZM1.375 11.0625H2.0625V11.875H1.375V11.0625ZM2.75 11.0625H3.4375V11.875H2.75V11.0625ZM5.5 7.8125H6.1875V8.625H5.5V7.8125ZM6.875 7.8125H7.5625V8.625H6.875V7.8125ZM5.5 9.4375H6.1875V10.25H5.5V9.4375ZM6.875 9.4375H7.5625V10.25H6.875V9.4375ZM8.25 7.8125H8.9375V8.625H8.25V7.8125ZM8.25 9.4375H8.9375V10.25H8.25V9.4375ZM5.5 6.1875H6.1875V7H5.5V6.1875ZM6.875 6.1875H7.5625V7H6.875V6.1875ZM8.25 6.1875H8.9375V7H8.25V6.1875ZM5.5 4.5625H6.1875V5.375H5.5V4.5625ZM6.875 4.5625H7.5625V5.375H6.875V4.5625ZM8.25 4.5625H8.9375V5.375H8.25V4.5625ZM8.25 2.9375H8.9375V3.75H8.25V2.9375Z" fill="white"/>
</g>
<defs>
<clipPath id="clip0_50_2651">
<rect width="11" height="13" fill="white" transform="translate(0 0.5)"/>
</clipPath>
</defs>
</svg>
