<svg width="12" height="10" viewBox="0 0 12 10" fill="none" xmlns="http://www.w3.org/2000/svg">
<path d="M11.5002 2.66666C11.5002 1.70007 9.672 0.916656 7.41683 0.916656C5.16166 0.916656 3.3335 1.70007 3.3335 2.66666M11.5002 2.66666V4.99999C11.5002 5.59499 10.8083 6.11999 9.75016 6.43616C9.08866 6.63449 8.28425 6.74999 7.41683 6.74999C6.54941 6.74999 5.745 6.63391 5.0835 6.43616C4.02591 6.11999 3.3335 5.59499 3.3335 4.99999V2.66666M11.5002 2.66666C11.5002 3.26166 10.8083 3.78666 9.75016 4.10282C9.08866 4.30116 8.28425 4.41666 7.41683 4.41666C6.54941 4.41666 5.745 4.30057 5.0835 4.10282C4.02591 3.78666 3.3335 3.26166 3.3335 2.66666" stroke="white" stroke-linecap="round" stroke-linejoin="round"/>
<path d="M1 5V7.33333C1 7.92833 1.69242 8.45333 2.75 8.7695C3.4115 8.96783 4.21592 9.08333 5.08333 9.08333C5.95075 9.08333 6.75517 8.96725 7.41667 8.7695C8.47425 8.45333 9.16667 7.92833 9.16667 7.33333V6.75M1 5C1 4.30175 1.95375 3.69916 3.33333 3.41858M1 5C1 5.595 1.69242 6.12 2.75 6.43616C3.4115 6.6345 4.21592 6.75 5.08333 6.75C5.48875 6.75 5.88017 6.72491 6.25 6.67766" stroke="white" stroke-linecap="round" stroke-linejoin="round"/>
</svg>
