<svg width="332" height="45" viewBox="0 0 332 45" fill="none" xmlns="http://www.w3.org/2000/svg">
<path d="M94.6609 0.891357H109.447L121.369 33.0549L133.199 0.891357H147.468V43.7761H137.984V10.9918L125.632 43.7761H115.887L103.532 11.1711V43.7761H94.6609V0.891357Z" fill="white"/>
<path d="M209.404 0.891357H242.03V43.7761H231.927V9.91972H218.627C218.539 15.9442 218.366 24.0066 218.193 28.5274C217.845 39.7797 214.608 43.7661 205.141 43.7661H200.617V34.7378H203.14C207.403 34.7378 208.794 32.7894 209.058 26.6753C209.319 20.1198 209.404 7.09504 209.404 0.891357Z" fill="white"/>
<path d="M293.634 0.891357H332V9.92968H317.82V43.786H307.814V9.92968H293.634V0.891357Z" fill="white"/>
<path d="M68.5399 0H64.9256C56.2467 0 49.6732 5.37719 48.1642 13.3766L57.3809 14.8935C58.6421 11.083 61.5395 8.48401 65.2026 8.31141C65.897 8.25996 66.5941 8.25996 67.2884 8.31141C72.7376 8.51056 75.1982 11.1693 75.1982 17.7414C64.8735 17.7414 57.8143 17.2435 52.6259 20.7287C48.3891 23.5766 46.5706 26.7333 46.5706 31.7221C46.5706 38.9415 52.0882 44.6672 60.9919 44.6672H62.2173C68.5073 44.6672 73.585 42.1711 75.6512 39.1639V43.7809H84.9428V17.924C84.9493 7.9662 79.7055 0 68.5399 0ZM62.8659 36.296C58.9159 36.1832 56.628 33.8531 56.628 30.9056C56.628 28.4659 57.7068 27.2743 59.1343 26.4279C60.6302 25.5383 62.5726 25.233 65.5937 25.1234C68.4976 25.0172 70.8571 24.8878 75.3709 24.8878C75.3709 32.1901 70.8506 35.8844 65.2352 36.2728C64.4465 36.3259 63.6555 36.3337 62.8659 36.296Z" fill="white"/>
<path d="M291.299 25.2259V21.2195C291.299 7.38159 282.764 0.225281 271.745 0.225281H269.59C257.727 0.225281 250.16 8.46034 249.772 20.0844C249.717 21.7871 249.717 22.4974 249.772 24.8209C250.049 36.3918 258.011 44.1755 268.645 44.4609C270.601 44.5174 270.347 44.514 272.181 44.4609C281.444 44.1954 288.454 38.7518 290.52 31.6387L281.564 30.0421C279.374 34.4999 275.199 36.2126 271.855 36.3819C271.101 36.4317 270.345 36.4317 269.59 36.3819C264.356 36.1628 259.67 31.9839 259.67 25.9163V25.2259H291.299ZM269.414 8.2977C270.245 8.24127 271.077 8.24127 271.908 8.2977C276.304 8.52341 280.935 11.4311 281.382 17.2165H259.719C260.221 12.0617 264.294 8.58647 269.414 8.2977Z" fill="white"/>
<path d="M197.876 18.5509C197.651 8.17157 189.435 0.225281 178.572 0.225281H174.635C163.773 0.225281 155.557 8.17157 155.329 18.6073C155.273 21.4984 155.273 23.1845 155.329 26.0789C155.557 36.5113 163.773 44.4775 174.635 44.4775H178.572C189.435 44.4775 197.651 36.5312 197.876 26.0955C197.934 23.1845 197.934 21.4419 197.876 18.5509ZM187.955 25.5578C187.838 31.6188 183.51 35.7313 177.686 36.0334C176.966 36.0931 176.242 36.0931 175.522 36.0334C169.639 35.7213 165.37 31.6088 165.266 25.5578C165.207 23.0385 165.207 21.6079 165.266 19.0886C165.37 13.0774 169.639 8.96155 175.522 8.66282C176.242 8.60307 176.966 8.60307 177.686 8.66282C183.516 8.96155 187.838 13.0774 187.955 19.1384C188.014 21.6577 188.014 23.0285 187.955 25.5578Z" fill="white"/>
<path d="M30.9465 28.648C29.7732 32.6311 26.6347 35.3496 22.4175 35.9504C21.2885 36.1055 20.1441 36.1055 19.015 35.9504C13.7679 35.1836 10.0754 31.1806 9.9646 25.5578C9.90594 23.0385 9.90594 21.6079 9.9646 19.0886C10.0754 13.416 13.9537 9.26028 19.2986 8.68273C20.1648 8.58773 21.0383 8.58105 21.9058 8.66282C26.4033 9.15738 29.783 11.9057 30.9986 16.078L40.7758 14.1562C38.6672 6.00742 31.4223 0.225281 22.1568 0.225281H19.3507C8.48824 0.225281 0.268873 8.17157 0.0342202 18.6073C-0.0114067 21.4984 -0.0114067 23.1845 0.0342202 26.0789C0.268873 36.5113 8.48824 44.4775 19.3507 44.4775H22.1568C31.6081 44.4775 38.9149 38.4697 40.8475 30.0421L30.9465 28.648Z" fill="white"/>
</svg>
