<svg width="18" height="20" viewBox="0 0 18 20" fill="none" xmlns="http://www.w3.org/2000/svg">
<path fill-rule="evenodd" clip-rule="evenodd" d="M10.2626 0.451919C10.0751 0.264382 9.82076 0.159026 9.55554 0.159026C9.29033 0.159026 9.03597 0.264382 8.84844 0.451919L6.02001 3.28035C5.83247 3.46788 5.72712 3.72224 5.72712 3.98745C5.72712 4.25267 5.83247 4.50702 6.02001 4.69456L8.84844 7.52299L0.363154 16.0083C0.175617 16.1958 0.0702604 16.4502 0.0702604 16.7154C0.0702604 16.9806 0.175618 17.2349 0.363154 17.4225L2.48447 19.5438C2.67201 19.7313 2.92636 19.8367 3.19158 19.8367C3.4568 19.8367 3.71115 19.7313 3.89869 19.5438L12.384 11.0585L15.2124 13.8869C15.3999 14.0745 15.6543 14.1798 15.9195 14.1798C16.1847 14.1798 16.4391 14.0745 16.6266 13.8869L17.3337 13.1798C17.5212 12.9923 17.6265 12.7379 17.6265 12.4727L17.6265 11.5436C17.6265 10.3617 17.3937 9.19137 16.9413 8.09944C16.489 7.00751 15.8261 6.01536 14.9904 5.17963L10.2626 0.451919Z" fill="white"/>
</svg>
