<svg width="17" height="14" viewBox="0 0 17 14" fill="none" xmlns="http://www.w3.org/2000/svg">
<path d="M7.85501 -5.72205e-06C7.70602 0.00087738 7.5591 0.0350437 7.42501 0.0999947C7.27209 0.190094 7.14979 0.324092 7.074 0.484588C6.99821 0.645083 6.97243 0.824659 7.00001 0.999994V4.34999L1.58501 0.209994C1.44127 0.0961952 1.26822 0.0254622 1.08592 0.00599384C0.903625 -0.0134745 0.719541 0.0191183 0.55501 0.0999947C0.387641 0.18316 0.246927 0.311563 0.148829 0.470641C0.0507313 0.629719 -0.000824409 0.813104 9.96936e-06 0.999994V13C-0.000824409 13.1869 0.0507313 13.3703 0.148829 13.5293C0.246927 13.6884 0.387641 13.8168 0.55501 13.9C0.719392 13.9815 0.903593 14.0144 1.08602 13.9949C1.26845 13.9754 1.44154 13.9043 1.58501 13.79L7.00001 9.65499V13C6.97349 13.1746 6.99979 13.3531 7.07553 13.5125C7.15126 13.672 7.27297 13.8052 7.42501 13.895C7.58939 13.9765 7.77359 14.0094 7.95602 13.9899C8.13845 13.9704 8.31154 13.8993 8.45501 13.785L16.115 7.78499C16.2345 7.69145 16.3312 7.57193 16.3977 7.43549C16.4641 7.29905 16.4987 7.14927 16.4987 6.99749C16.4987 6.84572 16.4641 6.69594 16.3977 6.5595C16.3312 6.42305 16.2345 6.30353 16.115 6.20999L8.45501 0.209994C8.28317 0.0765963 8.07253 0.00286961 7.85501 -5.72205e-06Z" fill="white"/>
</svg>
