<svg width="15" height="18" viewBox="0 0 15 18" fill="none" xmlns="http://www.w3.org/2000/svg">
<path fill-rule="evenodd" clip-rule="evenodd" d="M8.42396 0.715784C8.89796 0.147285 9.82121 0.535784 9.74621 1.27228L9.21671 6.44578H13.5C13.6425 6.44584 13.782 6.48649 13.9023 6.56299C14.0225 6.63948 14.1185 6.74865 14.1789 6.87771C14.2393 7.00677 14.2618 7.15038 14.2435 7.29172C14.2253 7.43306 14.1672 7.56628 14.076 7.67578L6.57596 16.6758C6.10196 17.2443 5.17871 16.8558 5.25371 16.1193L5.78321 10.9458H1.49996C1.35745 10.9457 1.21791 10.9051 1.09767 10.8286C0.977426 10.7521 0.881469 10.6429 0.821031 10.5139C0.760593 10.3848 0.738176 10.2412 0.756406 10.0998C0.774635 9.95851 0.832757 9.82528 0.923964 9.71578L8.42396 0.715784Z" fill="white"/>
</svg>
