<svg width="19" height="18" viewBox="0 0 19 18" fill="none" xmlns="http://www.w3.org/2000/svg">
<g clip-path="url(#clip0_131_680)">
<path d="M9.35501 1.99999C9.20602 2.00088 9.0591 2.03504 8.92501 2.09999C8.77209 2.19009 8.64979 2.32409 8.574 2.48459C8.49821 2.64508 8.47243 2.82466 8.50001 2.99999V6.34999L3.08501 2.20999C2.94127 2.0962 2.76822 2.02546 2.58592 2.00599C2.40362 1.98653 2.21954 2.01912 2.05501 2.09999C1.88764 2.18316 1.74693 2.31156 1.64883 2.47064C1.55073 2.62972 1.49918 2.8131 1.50001 2.99999V15C1.49918 15.1869 1.55073 15.3703 1.64883 15.5293C1.74693 15.6884 1.88764 15.8168 2.05501 15.9C2.21939 15.9815 2.40359 16.0144 2.58602 15.9949C2.76845 15.9754 2.94154 15.9043 3.08501 15.79L8.50001 11.655V15C8.47349 15.1746 8.49979 15.3531 8.57553 15.5125C8.65126 15.672 8.77297 15.8052 8.92501 15.895C9.08939 15.9765 9.27359 16.0094 9.45602 15.9899C9.63845 15.9704 9.81154 15.8993 9.95501 15.785L17.615 9.78499C17.7345 9.69145 17.8312 9.57193 17.8977 9.43549C17.9641 9.29905 17.9987 9.14927 17.9987 8.99749C17.9987 8.84572 17.9641 8.69594 17.8977 8.5595C17.8312 8.42305 17.7345 8.30353 17.615 8.20999L9.95501 2.20999C9.78317 2.0766 9.57253 2.00287 9.35501 1.99999Z" fill="white"/>
</g>
<defs>
<clipPath id="clip0_131_680">
<rect width="18" height="18" fill="white" transform="matrix(1 0 0 -1 0.5 18)"/>
</clipPath>
</defs>
</svg>
