<svg width="25" height="24" viewBox="0 0 25 24" fill="none" xmlns="http://www.w3.org/2000/svg">
<path d="M24.4165 3.75C24.4165 4.59375 23.7462 5.37187 22.6165 6C21.2524 6.75469 19.2181 7.28906 16.8837 7.44844C16.7103 7.36406 16.5368 7.28437 16.354 7.21406C14.5071 6.44062 12.0509 6 9.4165 6C9.02744 6 8.64775 6.00938 8.26807 6.02813L8.2165 6C7.08682 5.37187 6.4165 4.59375 6.4165 3.75C6.4165 1.67812 10.4478 0 15.4165 0C20.3853 0 24.4165 1.67812 24.4165 3.75ZM7.94932 7.55156C8.42744 7.51875 8.91963 7.5 9.4165 7.5C12.3321 7.5 14.9196 8.07656 16.5649 8.97187C17.7274 9.60469 18.4165 10.3922 18.4165 11.25C18.4165 11.4375 18.3837 11.6203 18.3181 11.7984C18.1024 12.4172 17.5212 12.9844 16.6774 13.4625C16.6728 13.4672 16.6634 13.4672 16.6587 13.4719C16.6446 13.4812 16.6306 13.4859 16.6165 13.4953C14.9759 14.4047 12.3603 14.9953 9.4165 14.9953C6.62275 14.9953 4.12432 14.4656 2.46963 13.6312C2.38057 13.5891 2.29619 13.5422 2.21182 13.4953C1.08682 12.8719 0.416504 12.0938 0.416504 11.25C0.416504 9.61875 2.91963 8.22656 6.4165 7.71563C6.90869 7.64531 7.41963 7.58906 7.94932 7.55156ZM19.9165 11.25C19.9165 10.2234 19.4196 9.37969 18.7868 8.74688C20.1134 8.54063 21.3274 8.2125 22.3587 7.78594C23.1228 7.46719 23.8353 7.07344 24.4165 6.59063V8.25C24.4165 9.15469 23.6431 9.98906 22.3634 10.6359C21.679 10.9828 20.8446 11.2781 19.9071 11.5031C19.9118 11.4187 19.9165 11.3391 19.9165 11.2547V11.25ZM18.4165 15.75C18.4165 16.5938 17.7462 17.3719 16.6165 18C16.5321 18.0469 16.4478 18.0891 16.3587 18.1359C14.7087 18.9703 12.2103 19.5 9.4165 19.5C6.47275 19.5 3.85713 18.9094 2.2165 18C1.08682 17.3719 0.416504 16.5938 0.416504 15.75V14.0906C1.00244 14.5734 1.71025 14.9672 2.47432 15.2859C4.32588 16.0594 6.78213 16.5 9.4165 16.5C12.0509 16.5 14.5071 16.0594 16.3587 15.2859C16.7243 15.1359 17.0759 14.9625 17.4087 14.775C17.6946 14.6156 17.9618 14.4375 18.2149 14.25C18.2853 14.1984 18.3509 14.1422 18.4165 14.0906V15.75ZM19.9165 15.75V13.0359C20.8071 12.8391 21.6274 12.5906 22.3587 12.2859C23.1228 11.9672 23.8353 11.5734 24.4165 11.0906V12.75C24.4165 13.2422 24.1821 13.7344 23.7181 14.1984C22.954 14.9625 21.6087 15.5906 19.9071 15.9984C19.9118 15.9187 19.9165 15.8344 19.9165 15.75ZM9.4165 21C12.0509 21 14.5071 20.5594 16.3587 19.7859C17.1228 19.4672 17.8353 19.0734 18.4165 18.5906V20.25C18.4165 22.3219 14.3853 24 9.4165 24C4.44775 24 0.416504 22.3219 0.416504 20.25V18.5906C1.00244 19.0734 1.71025 19.4672 2.47432 19.7859C4.32588 20.5594 6.78213 21 9.4165 21Z" fill="white"/>
</svg>
