<svg width="25" height="24" viewBox="0 0 25 24" fill="none" xmlns="http://www.w3.org/2000/svg">
<path d="M16.2524 17.3444C17.3181 16.7518 17.6666 16.168 17.6666 15.75V15.4897C17.3427 15.6673 17.0013 15.8329 16.6457 15.9789C14.6819 16.7987 12.1238 17.25 9.41663 17.25C6.70846 17.25 4.14937 16.7984 2.18536 15.978C1.8372 15.8327 1.49539 15.671 1.16663 15.4908V15.75C1.16663 16.1679 1.51499 16.7515 2.58022 17.344L16.2524 17.3444ZM16.2524 17.3444C16.2046 17.3709 16.1631 17.3924 16.1116 17.4191M16.2524 17.3444L16.1116 17.4191M16.1116 17.4191C16.0833 17.4337 16.0521 17.4499 16.0152 17.4693M16.1116 17.4191L16.0152 17.4693M16.0152 17.4693C14.5005 18.2337 12.1296 18.75 9.41663 18.75C6.5523 18.75 4.07478 18.1721 2.58109 17.3445L16.0152 17.4693ZM22.0244 9.96696C21.6139 10.175 21.1356 10.3667 20.6005 10.5347C20.5126 10.0663 20.3427 9.64012 20.1234 9.25843C21.0332 9.05637 21.8825 8.79459 22.6455 8.47899L22.6476 8.47812C22.9947 8.3333 23.3371 8.17178 23.6666 7.99156V8.25C23.6666 8.70154 23.2529 9.346 22.0252 9.96659L22.0244 9.96696ZM17.6144 11.5392L17.6143 11.5391L17.61 11.5516C17.4829 11.9162 17.0932 12.36 16.3332 12.7955C16.3173 12.8033 16.2991 12.8128 16.2795 12.8245C16.2764 12.8261 16.2732 12.8278 16.27 12.8295C16.2612 12.8343 16.2508 12.8401 16.2392 12.847C14.7442 13.6708 12.2727 14.2453 9.41663 14.2453C6.70079 14.2453 4.32713 13.7279 2.80744 12.9616L2.79918 12.9574L2.79082 12.9534C2.72724 12.9233 2.66376 12.8884 2.57617 12.8397L2.57547 12.8393C1.51571 12.252 1.16663 11.6683 1.16663 11.25C1.16663 10.8464 1.4892 10.2864 2.48129 9.71164C3.43631 9.15832 4.83643 8.70457 6.52405 8.45789C6.99904 8.39007 7.49153 8.33588 8.00161 8.29975C8.46403 8.26803 8.93874 8.25 9.41663 8.25C12.2537 8.25 14.706 8.81412 16.2066 9.63065C17.3072 10.2298 17.6666 10.8237 17.6666 11.25C17.6666 11.3479 17.6499 11.443 17.6144 11.5392ZM22.6473 12.9782L22.6476 12.9781C22.9947 12.8333 23.3371 12.6718 23.6666 12.4916V12.75C23.6666 12.9874 23.5565 13.2995 23.1879 13.6681C22.6913 14.1647 21.8326 14.6383 20.6666 15.01V13.6285C21.3709 13.4488 22.0349 13.2334 22.6473 12.9782ZM23.6666 3.75C23.6666 4.16793 23.3182 4.75161 22.2528 5.34415C21.0505 6.00913 19.2074 6.51574 17.0268 6.68598C16.902 6.6282 16.7714 6.57131 16.6339 6.5181C14.6753 5.70001 12.12 5.25 9.41663 5.25C9.0898 5.25 8.76911 5.25642 8.44948 5.26926C7.48628 4.70269 7.16663 4.15031 7.16663 3.75C7.16663 3.49333 7.28829 3.181 7.65042 2.82434C8.01521 2.46507 8.58151 2.10705 9.34174 1.79038C10.8589 1.15841 13.0065 0.75 15.4166 0.75C17.8267 0.75 19.9744 1.15841 21.4915 1.79038C22.2517 2.10705 22.818 2.46507 23.1828 2.82434C23.545 3.181 23.6666 3.49333 23.6666 3.75ZM9.41663 21.75C12.1248 21.75 14.6839 21.2984 16.6479 20.478C16.9949 20.3332 17.3372 20.1717 17.6666 19.9916V20.25C17.6666 20.5067 17.545 20.819 17.1828 21.1757C16.818 21.5349 16.2517 21.8929 15.4915 22.2096C13.9744 22.8416 11.8267 23.25 9.41663 23.25C7.00651 23.25 4.8589 22.8416 3.34174 22.2096C2.58151 21.8929 2.01521 21.5349 1.65042 21.1757C1.28829 20.819 1.16663 20.5067 1.16663 20.25V19.9908C1.49539 20.171 1.8372 20.3327 2.18536 20.478C4.14937 21.2984 6.70846 21.75 9.41663 21.75Z" stroke="#93CFFF" stroke-width="1.5"/>
</svg>
