<svg width="12" height="14" viewBox="0 0 12 14" fill="none" xmlns="http://www.w3.org/2000/svg">
<path fill-rule="evenodd" clip-rule="evenodd" d="M6.71869 0.293327C7.08736 -0.148839 7.80544 0.153327 7.74711 0.726161L7.33528 4.74999H10.6667C10.7775 4.75004 10.8861 4.78166 10.9796 4.84115C11.0731 4.90065 11.1477 4.98556 11.1948 5.08594C11.2418 5.18632 11.2592 5.29802 11.245 5.40795C11.2308 5.51788 11.1856 5.62149 11.1147 5.70666L5.28136 12.7067C4.91269 13.1488 4.19461 12.8467 4.25294 12.2738L4.66478 8.24999H1.33336C1.22252 8.24995 1.11398 8.21833 1.02046 8.15884C0.926941 8.09934 0.852308 8.01443 0.805301 7.91405C0.758293 7.81367 0.740858 7.70197 0.755037 7.59204C0.769215 7.48211 0.814421 7.3785 0.885359 7.29333L6.71869 0.293327Z" fill="#89C5FF"/>
</svg>
