<svg width="21" height="22" viewBox="0 0 21 22" fill="none" xmlns="http://www.w3.org/2000/svg">
<path d="M7.88478 19.7733V16.7156C7.88478 15.9351 8.52217 15.3023 9.30844 15.3023H12.1826C12.5602 15.3023 12.9223 15.4512 13.1893 15.7163C13.4563 15.9813 13.6063 16.3408 13.6063 16.7156V19.7733C13.6039 20.0978 13.7321 20.4099 13.9624 20.6402C14.1927 20.8705 14.506 21 14.8329 21H16.7938C17.7096 21.0024 18.5888 20.6428 19.2372 20.0008C19.8856 19.3588 20.25 18.487 20.25 17.5778V8.86686C20.25 8.13246 19.9221 7.43584 19.3546 6.96467L12.684 1.67587C11.5237 0.748562 9.86111 0.778502 8.73539 1.74698L2.21701 6.96467C1.62274 7.42195 1.26755 8.12064 1.25 8.86686V17.5689C1.25 19.4639 2.79738 21 4.70617 21H6.62229C7.30123 21 7.853 20.4562 7.85792 19.7822L7.88478 19.7733Z" stroke="#93CFFF" stroke-width="1.5"/>
</svg>
