<svg width="24" height="18" viewBox="0 0 24 18" fill="none" xmlns="http://www.w3.org/2000/svg">
<path d="M15.9165 8.99999C14.9742 8.99999 14.063 8.58272 13.3499 7.82545C12.6564 7.08681 12.2329 6.10181 12.1582 5.05272C12.0785 3.93363 12.4227 2.90454 13.1271 2.15454C13.8316 1.40455 14.8165 1 15.9165 1C17.0087 1 17.9964 1.41182 18.6986 2.16C19.4076 2.91545 19.7528 3.94272 19.673 5.05227C19.5965 6.10272 19.1734 7.08727 18.4814 7.82499C17.77 8.58272 16.8593 8.99999 15.9165 8.99999ZM21.9587 17H9.87482C9.68054 17.001 9.48861 16.9578 9.3138 16.8737C9.13899 16.7897 8.98596 16.6669 8.86649 16.515C8.73976 16.3503 8.65225 16.1593 8.6105 15.9562C8.56875 15.7532 8.57385 15.5435 8.62541 15.3427C9.01132 13.8059 9.9674 12.5314 11.3901 11.6573C12.6528 10.8818 14.2601 10.4545 15.9165 10.4545C17.6055 10.4545 19.1707 10.8636 20.4407 11.6386C21.8666 12.5082 22.824 13.79 23.2081 15.3454C23.2591 15.5464 23.2636 15.7561 23.2214 15.959C23.1792 16.1619 23.0913 16.3527 22.9643 16.5173C22.8449 16.6685 22.6923 16.7906 22.518 16.8743C22.3437 16.958 22.1524 17.001 21.9587 17ZM7.25408 9.18181C5.64122 9.18181 4.22314 7.69454 4.0916 5.86681C4.02652 4.93045 4.32077 4.06454 4.9166 3.42954C5.50601 2.80091 6.33742 2.45454 7.25408 2.45454C8.17075 2.45454 8.99574 2.80273 9.58836 3.435C10.1888 4.075 10.4821 4.93909 10.4134 5.86772C10.2818 7.69499 8.8642 9.18181 7.25408 9.18181ZM10.2635 10.6114C9.45728 10.2204 8.41091 10.025 7.25454 10.025C5.9043 10.025 4.59301 10.3741 3.56177 11.0077C2.39257 11.7273 1.60607 12.775 1.28845 14.04C1.24197 14.2219 1.23757 14.412 1.27559 14.5958C1.31361 14.7797 1.39305 14.9527 1.50799 15.1018C1.61705 15.2407 1.75676 15.3528 1.91639 15.4298C2.07602 15.5067 2.25131 15.5462 2.42878 15.5454H7.51625C7.60212 15.5454 7.68526 15.5155 7.75117 15.461C7.81709 15.4064 7.86161 15.3306 7.87695 15.2468C7.882 15.2182 7.88841 15.1895 7.89575 15.1613C8.28441 13.6132 9.19512 12.305 10.5408 11.3514C10.5903 11.316 10.6301 11.2689 10.6566 11.2144C10.6831 11.1599 10.6955 11.0997 10.6926 11.0393C10.6898 10.9788 10.6717 10.9201 10.6402 10.8683C10.6086 10.8165 10.5645 10.7733 10.5119 10.7427C10.4399 10.7009 10.3574 10.6568 10.2635 10.6114Z" stroke="#93CFFF" stroke-width="1.5"/>
</svg>
