<svg width="25" height="22" viewBox="0 0 25 22" fill="none" xmlns="http://www.w3.org/2000/svg">
<path fill-rule="evenodd" clip-rule="evenodd" d="M13.4548 1.53062C13.378 1.37221 13.2551 1.23805 13.1007 1.14401C12.9462 1.04997 12.7667 1 12.5834 1C12.4 1 12.2205 1.04997 12.0661 1.14401C11.9117 1.23805 11.7888 1.37221 11.712 1.53062L8.95757 7.211L2.43055 7.94798C2.24845 7.96845 2.07631 8.03812 1.93452 8.14877C1.79273 8.25942 1.68722 8.4064 1.63048 8.57233C1.57374 8.73825 1.56814 8.91618 1.61434 9.08504C1.66054 9.2539 1.75662 9.40663 1.89119 9.52516L6.71856 13.7717L5.43734 19.9087C5.40175 20.0798 5.41839 20.257 5.48527 20.4194C5.55216 20.5817 5.6665 20.7225 5.81478 20.825C5.96306 20.9275 6.13908 20.9874 6.32203 20.9977C6.50497 21.008 6.6872 20.9683 6.84716 20.8832L12.5834 17.8275L18.3196 20.8832C18.4796 20.9686 18.6621 21.0086 18.8453 20.9984C19.0286 20.9882 19.2049 20.9282 19.3534 20.8256C19.5018 20.7229 19.6163 20.5819 19.6831 20.4192C19.7499 20.2566 19.7663 20.0791 19.7304 19.9078L18.4491 13.7727L23.2756 9.52516C23.4101 9.40663 23.5062 9.2539 23.5524 9.08504C23.5986 8.91618 23.593 8.73825 23.5363 8.57233C23.4795 8.4064 23.374 8.25942 23.2322 8.14877C23.0904 8.03812 22.9183 7.96845 22.7362 7.94798L16.2082 7.21008L13.4548 1.53062Z" stroke="#93CFFF" stroke-width="1.5"/>
</svg>
