<svg width="25" height="22" viewBox="0 0 25 22" fill="none" xmlns="http://www.w3.org/2000/svg">
<path fill-rule="evenodd" clip-rule="evenodd" d="M13.4547 1.53062C13.3779 1.37221 13.255 1.23805 13.1005 1.14401C12.9461 1.04997 12.7666 1 12.5833 1C12.3999 1 12.2204 1.04997 12.066 1.14401C11.9115 1.23805 11.7886 1.37221 11.7118 1.53062L8.95745 7.211L2.43043 7.94798C2.24833 7.96845 2.07619 8.03812 1.9344 8.14877C1.79261 8.25942 1.6871 8.4064 1.63036 8.57233C1.57361 8.73825 1.56801 8.91618 1.61422 9.08504C1.66042 9.2539 1.7565 9.40663 1.89107 9.52516L6.71844 13.7717L5.43722 19.9087C5.40163 20.0798 5.41826 20.257 5.48515 20.4194C5.55204 20.5817 5.66638 20.7225 5.81466 20.825C5.96294 20.9275 6.13896 20.9874 6.32191 20.9977C6.50485 21.008 6.68708 20.9683 6.84704 20.8832L12.5833 17.8275L18.3195 20.8832C18.4795 20.9686 18.662 21.0086 18.8452 20.9984C19.0284 20.9882 19.2047 20.9282 19.3532 20.8256C19.5017 20.7229 19.6162 20.5819 19.683 20.4192C19.7498 20.2566 19.7662 20.0791 19.7302 19.9078L18.449 13.7727L23.2754 9.52516C23.41 9.40663 23.5061 9.2539 23.5523 9.08504C23.5985 8.91618 23.5929 8.73825 23.5361 8.57233C23.4794 8.4064 23.3739 8.25942 23.2321 8.14877C23.0903 8.03812 22.9182 7.96845 22.7361 7.94798L16.2081 7.21008L13.4547 1.53062Z" fill="white" stroke="white" stroke-width="1.5"/>
</svg>
