<svg width="24" height="24" viewBox="0 0 24 24" fill="none" xmlns="http://www.w3.org/2000/svg">
<path d="M21.9531 8.46301C21.7863 6.80355 21.0408 5.25575 19.8471 4.09101L19.7391 4.00301C18.8791 3.16709 17.8209 2.56337 16.6637 2.24853C15.5065 1.93368 14.2883 1.91802 13.1234 2.20302C11.9585 2.48802 10.8851 3.06434 10.004 3.87788C9.12288 4.69142 8.46292 5.7155 8.08606 6.85401C7.58138 8.3792 7.60888 10.0305 8.16406 11.538L2.21406 17.511C2.14614 17.5789 2.09228 17.6595 2.05556 17.7482C2.01883 17.8369 1.99997 17.932 2.00006 18.028V21.268C1.99885 21.3644 2.01693 21.46 2.05322 21.5493C2.08952 21.6386 2.1433 21.7197 2.21141 21.7879C2.27952 21.8561 2.36058 21.91 2.44982 21.9465C2.53906 21.9829 2.63468 22.0011 2.73106 22H5.98006C6.08578 22.0018 6.19059 21.9802 6.28705 21.9369C6.38351 21.8936 6.46924 21.8296 6.53817 21.7494C6.60709 21.6692 6.6575 21.5749 6.68583 21.473C6.71415 21.3711 6.71969 21.2643 6.70206 21.16L6.55506 20.185L7.46206 20.331C7.57717 20.3509 7.69534 20.3436 7.80715 20.3098C7.91896 20.2759 8.02132 20.2164 8.10606 20.136L9.73506 18.506C9.8176 18.4246 9.87925 18.3244 9.91477 18.214C9.95029 18.1036 9.95862 17.9863 9.93906 17.872L9.78306 16.896L10.7591 17.042C10.8734 17.0606 10.9906 17.0517 11.1008 17.0161C11.2111 16.9804 11.3112 16.919 11.3931 16.837L12.4751 15.744C13.6015 16.1622 14.8161 16.286 16.0038 16.1037C17.1915 15.9214 18.3129 15.4389 19.2621 14.702C20.2116 13.965 20.958 12.9984 21.4307 11.8932C21.9034 10.7881 22.087 9.58073 21.9641 8.38501L21.9531 8.46301ZM17.4281 10.835C17.0112 11.262 16.4739 11.5516 15.8881 11.665C15.6951 11.7035 15.4988 11.7229 15.3021 11.723C14.908 11.7221 14.5177 11.6461 14.1521 11.499C13.6029 11.2697 13.1344 10.8823 12.8061 10.386C12.4712 9.89416 12.294 9.31202 12.2981 8.71701C12.2981 8.12348 12.4741 7.5433 12.804 7.04986C13.1338 6.55643 13.6026 6.17193 14.1511 5.94501C14.7012 5.72072 15.3052 5.66314 15.8879 5.77942C16.4705 5.8957 17.0061 6.18072 17.4281 6.59901C17.9845 7.16351 18.2965 7.92434 18.2965 8.71701C18.2965 9.50968 17.9845 10.2705 17.4281 10.835Z" fill="white"/>
</svg>
