<svg width="11" height="13" viewBox="0 0 11 13" fill="none" xmlns="http://www.w3.org/2000/svg">
<path fill-rule="evenodd" clip-rule="evenodd" d="M5.96845 0.293388C6.33712 -0.148778 7.0552 0.153388 6.99687 0.726222L6.58503 4.75006H9.91645C10.0273 4.7501 10.1358 4.78172 10.2293 4.84121C10.3229 4.90071 10.3975 4.98562 10.4445 5.086C10.4915 5.18638 10.509 5.29808 10.4948 5.40801C10.4806 5.51794 10.4354 5.62155 10.3644 5.70672L4.53112 12.7067C4.16245 13.1489 3.44437 12.8467 3.5027 12.2739L3.91453 8.25006H0.583115C0.472273 8.25001 0.363738 8.21839 0.270217 8.1589C0.176697 8.0994 0.102064 8.01449 0.0550565 7.91411C0.0080492 7.81373 -0.00938603 7.70203 0.0047925 7.5921C0.018971 7.48217 0.0641764 7.37856 0.135115 7.29339L5.96845 0.293388Z" fill="#89C5FF"/>
</svg>
